<svg width="680" height="680" version="1.1" xmlns="http://www.w3.org/2000/svg" desc="Created with imagetracer.js version 1.2.6" ><path fill="rgb(255,255,255)" stroke="rgb(255,255,255)" stroke-width="1" opacity="1" d="M 0 0 L 680 0 L 680 680 L 0 680 L 0 0 Z M 68 68 L 68 612 L 612 612 L 612 68 L 68 68 Z " /><path fill="rgb(255,255,255)" stroke="rgb(255,255,255)" stroke-width="1" opacity="1" d="M 136 136 L 272 136 L 272 204 L 340 204 L 340 136 L 408 136 L 408 271.5 L 407.5 272 L 340 272 L 340 408 L 476 408 L 476 476 L 408 476 L 408 544 L 340 544 L 340 408 L 272 408 L 272 476 L 204 476 L 204 408 L 136 408 L 136 340 L 204 340 L 204 204 L 136 204 L 136 136 Z M 204 340 L 204 408 L 272 408 L 272 340 L 204 340 Z " /><path fill="rgb(255,255,255)" stroke="rgb(255,255,255)" stroke-width="1" opacity="1" d="M 476 136 L 544 136 L 544 272 L 476 272 L 476 136 Z " /><path fill="rgb(0,0,0)" stroke="rgb(0,0,0)" stroke-width="1" opacity="1" d="M 68 68 L 612 68 L 612 612 L 68 612 L 68 68 Z M 136 136 L 136 204 L 204 204 L 204 340 L 272 340 L 272 408 L 340 408 L 340 272 L 408 272 L 408 136 L 340 136 L 340 204 L 272 204 L 272 136 L 136 136 Z M 476 136 L 476 272 L 544 272 L 544 136 L 476 136 Z M 136 340 L 136 408 L 204 408 L 204 340 L 136 340 Z M 204 408 L 204 476 L 272 476 L 272 408 L 204 408 Z M 340 408 L 340 544 L 408 544 L 408 476 L 476 476 L 476 408 L 340 408 Z " /></svg>